<svg width="270" height="70" viewBox="0 0 270 70" fill="none" xmlns="http://www.w3.org/2000/svg">
<path d="M34.9554 3.39719V0C25.3002 0 16.539 3.93359 10.2363 10.2363L12.6501 12.6501C18.3717 6.97318 26.2389 3.39719 34.9554 3.39719Z" fill="#333333"/>
<path d="M3.39719 35H0C0 44.6552 3.93359 53.4163 10.2363 59.719L12.6501 57.3052C6.92848 51.6284 3.39719 43.7165 3.39719 35Z" fill="#333333"/>
<path d="M12.6501 57.35L10.2363 59.7638C16.5837 66.1111 25.3002 70 34.9554 70V66.6029C26.2389 66.6029 18.3717 63.0269 12.6501 57.35Z" fill="#333333"/>
<path d="M17.7908 17.8353L12.6503 12.6501C6.92875 18.3717 3.39746 26.2835 3.39746 35H10.6835C10.6835 28.295 13.4102 22.2159 17.7908 17.8353Z" fill="#F05E40"/>
<path d="M52.1645 17.8353L57.305 12.6948C51.5834 6.97319 43.7163 3.44189 34.9551 3.44189V10.728C41.7048 10.728 47.7392 13.41 52.1645 17.8353Z" fill="#F05E40"/>
<path d="M17.7909 52.1647L12.6504 57.3499C18.372 63.0715 26.2392 66.6028 35.0003 66.6028V59.3167C28.2506 59.272 22.2162 56.59 17.7909 52.1647Z" fill="#F05E40"/>
<path d="M34.9551 59.272V66.5581C43.6716 66.5581 51.5834 63.0268 57.305 57.3052L52.1645 52.1647C47.7392 56.59 41.7048 59.272 34.9551 59.272Z" fill="#F05E40"/>
<path d="M15.5559 35H10.6836C10.6836 41.705 13.4103 47.7842 17.7909 52.1647L21.2328 48.7229C17.7015 45.2363 15.5559 40.364 15.5559 35Z" fill="#333333"/>
<path d="M21.2328 21.2771L17.7909 17.8353C13.4103 22.2159 10.6836 28.295 10.6836 35H15.5559C15.5559 29.636 17.7015 24.7637 21.2328 21.2771Z" fill="#333333"/>
<path d="M21.2319 48.7228L17.79 52.1647C22.1706 56.5453 28.2498 59.272 34.9548 59.272V54.3997C29.5908 54.4444 24.7632 52.2541 21.2319 48.7228Z" fill="#333333"/>
<path d="M34.9548 15.5556V10.6833C28.2498 10.6833 22.1706 13.41 17.79 17.7906L21.2319 21.2325C24.7632 17.7459 29.5908 15.5556 34.9548 15.5556Z" fill="#333333"/>
<path d="M34.9551 54.4445V59.3168C41.6601 59.3168 47.7392 56.5901 52.1198 52.2095L48.6779 48.7676C45.1913 52.2542 40.3638 54.4445 34.9551 54.4445Z" fill="#333333"/>
<path d="M34.9551 10.728V15.6003C40.3191 15.6003 45.1913 17.7905 48.6779 21.2771L52.1198 17.8353C47.7392 13.41 41.7048 10.728 34.9551 10.728Z" fill="#333333"/>
<path d="M75.0513 42.6437C73.6656 41.9285 72.5481 40.9451 71.7882 39.6935C71.0283 38.4419 70.626 37.0115 70.626 35.4023C70.626 33.7931 71.0283 32.3627 71.7882 31.1111C72.5481 29.8595 73.6656 28.8761 75.0513 28.1609C76.437 27.4457 78.0462 27.0881 79.8342 27.0881C81.6668 27.0881 83.2313 27.4904 84.5276 28.2503C85.8686 29.0102 86.8073 30.1277 87.3437 31.4687L83.0078 33.7037C82.2926 32.2733 81.2198 31.5581 79.8342 31.5581C78.8061 31.5581 78.0015 31.9157 77.331 32.5862C76.6605 33.2567 76.3476 34.1954 76.3476 35.3576C76.3476 36.5645 76.6605 37.5032 77.331 38.1737C78.0015 38.8442 78.8061 39.2018 79.8342 39.2018C81.2198 39.2018 82.2926 38.4866 83.0078 37.0562L87.3437 39.2912C86.8073 40.6769 85.8686 41.7497 84.5276 42.5096C83.1866 43.2695 81.6221 43.6718 79.8342 43.6718C78.0462 43.6718 76.4817 43.3589 75.0513 42.6437Z" fill="#333333"/>
<path d="M128.602 43.2248C127.305 42.9119 126.233 42.5096 125.473 42.0179L127.171 38.1737C127.886 38.6207 128.78 38.9783 129.764 39.2465C130.792 39.5147 131.775 39.6488 132.759 39.6488C133.653 39.6488 134.323 39.5594 134.681 39.3806C135.083 39.2018 135.262 38.9336 135.262 38.576C135.262 38.2184 135.038 37.9502 134.547 37.8161C134.1 37.682 133.34 37.5032 132.356 37.3691C131.06 37.1903 129.987 37.0115 129.093 36.7433C128.199 36.4751 127.439 36.0281 126.769 35.3129C126.098 34.6424 125.786 33.659 125.786 32.4074C125.786 31.3793 126.098 30.4853 126.724 29.6807C127.35 28.8761 128.244 28.2503 129.406 27.8033C130.568 27.3563 131.999 27.0881 133.608 27.0881C134.77 27.0881 135.932 27.2222 137.05 27.4457C138.212 27.6692 139.151 28.0268 139.911 28.4738L138.212 32.2733C136.782 31.4687 135.262 31.1111 133.608 31.1111C132.714 31.1111 132.088 31.2005 131.641 31.424C131.239 31.6475 131.015 31.9157 131.015 32.2286C131.015 32.5862 131.239 32.8544 131.686 33.0332C132.133 33.1673 132.893 33.3461 133.921 33.4802C135.262 33.659 136.335 33.8825 137.184 34.1507C138.033 34.4189 138.793 34.8659 139.464 35.5364C140.09 36.2069 140.447 37.1903 140.447 38.3972C140.447 39.4253 140.134 40.3193 139.508 41.1239C138.883 41.9285 137.989 42.5543 136.782 43.0013C135.575 43.4483 134.144 43.6718 132.491 43.6718C131.239 43.6718 129.898 43.5377 128.602 43.2248Z" fill="#333333"/>
<path d="M152.517 42.7778C152.025 43.0907 151.444 43.3142 150.773 43.4483C150.103 43.6271 149.388 43.6718 148.583 43.6718C146.482 43.6718 144.873 43.1801 143.755 42.152C142.638 41.1239 142.102 39.6041 142.102 37.5479V23.825H147.734V27.9821H151.354V32.1839H147.734V37.5032C147.734 38.0843 147.868 38.5313 148.181 38.8442C148.494 39.1571 148.896 39.3359 149.388 39.3359C150.058 39.3359 150.595 39.1571 151.086 38.8442L152.517 42.7778Z" fill="#333333"/>
<path d="M156.896 42.6436C155.511 41.9285 154.438 40.9451 153.678 39.6935C152.918 38.4419 152.516 37.0115 152.516 35.4023C152.516 33.8378 152.918 32.4074 153.678 31.1558C154.438 29.9042 155.511 28.9208 156.896 28.2056C158.282 27.4904 159.802 27.1775 161.545 27.1775C163.288 27.1775 164.853 27.5351 166.238 28.2056C167.624 28.9208 168.697 29.9042 169.457 31.1558C170.217 32.4074 170.619 33.8378 170.619 35.447C170.619 37.0562 170.217 38.4866 169.457 39.7382C168.697 40.9898 167.624 41.9732 166.238 42.6884C164.853 43.4036 163.288 43.7611 161.545 43.7611C159.802 43.6717 158.237 43.3588 156.896 42.6436ZM163.959 38.2184C164.585 37.5479 164.897 36.6092 164.897 35.4023C164.897 34.2401 164.585 33.3014 163.959 32.6309C163.333 31.9604 162.528 31.6028 161.545 31.6028C160.562 31.6028 159.757 31.9604 159.131 32.6309C158.505 33.3014 158.193 34.2401 158.193 35.4023C158.193 36.6092 158.505 37.5479 159.131 38.2184C159.757 38.8889 160.562 39.2465 161.545 39.2465C162.528 39.2018 163.333 38.8889 163.959 38.2184Z" fill="#333333"/>
<path d="M187.695 28.8761C188.901 30.0383 189.527 31.8263 189.527 34.2401V43.4036H183.895V35.1341C183.895 32.9438 183.001 31.871 181.258 31.871C180.274 31.871 179.515 32.1839 178.933 32.8097C178.352 33.4355 178.039 34.3742 178.039 35.6705V43.4036H172.407V27.401H177.771V29.1443C178.397 28.4738 179.157 27.9821 180.006 27.6692C180.856 27.3116 181.839 27.1328 182.867 27.1328C184.879 27.1328 186.488 27.7139 187.695 28.8761Z" fill="#333333"/>
<path d="M202.669 39.0677C203.25 38.8442 203.787 38.4866 204.368 37.9949L207.318 41.0792C205.798 42.8225 203.518 43.6718 200.523 43.6718C198.646 43.6718 196.992 43.3142 195.562 42.599C194.131 41.8838 193.059 40.9004 192.254 39.6488C191.494 38.3972 191.092 36.9668 191.092 35.3576C191.092 33.7931 191.494 32.3627 192.254 31.1111C193.014 29.8595 194.087 28.8761 195.428 28.1609C196.769 27.4457 198.288 27.0881 199.987 27.0881C201.552 27.0881 202.982 27.401 204.278 28.0715C205.575 28.6973 206.603 29.636 207.363 30.8876C208.122 32.1392 208.525 33.5696 208.525 35.2682L197.082 37.4585C197.707 38.7548 198.914 39.3806 200.702 39.3806C201.462 39.3806 202.088 39.2912 202.669 39.0677ZM197.618 32.0051C196.992 32.5862 196.679 33.4802 196.59 34.5977L203.116 33.3461C202.937 32.6756 202.535 32.1392 201.999 31.7369C201.462 31.3346 200.792 31.1111 200.032 31.1111C199.048 31.1111 198.244 31.424 197.618 32.0051Z" fill="#333333"/>
<path d="M105.447 43.4036V27.0881H100.352V28.742C99.2788 27.6245 97.759 27.0881 95.8816 27.0881C94.4065 27.0881 93.1102 27.4457 91.9033 28.1162C90.6964 28.7867 89.7577 29.7701 89.0425 31.0217C88.3273 32.2733 87.9697 33.7484 87.9697 35.4023C87.9697 37.0562 88.3273 38.5313 89.0425 39.7829C89.7577 41.0345 90.6964 42.0179 91.9033 42.6884C93.1102 43.3589 94.4065 43.7165 95.8816 43.7165C97.9825 43.7165 99.5917 43.0907 100.62 41.8391V43.4483H105.447V43.4036ZM99.4576 38.2184C98.8318 38.8889 98.0272 39.2465 97.0438 39.2465C96.0604 39.2465 95.2558 38.8889 94.63 38.2184C94.0042 37.5479 93.6913 36.6092 93.6913 35.4023C93.6913 34.2401 94.0042 33.3014 94.63 32.6309C95.2558 31.9604 96.0604 31.6028 97.0438 31.6028C98.0272 31.6028 98.8318 31.9604 99.4576 32.6309C100.083 33.3014 100.396 34.2401 100.396 35.4023C100.441 36.5645 100.128 37.5032 99.4576 38.2184Z" fill="#333333"/>
<path d="M121.137 27.9821C122.344 28.6526 123.283 29.636 123.998 30.8876C124.713 32.1392 125.071 33.6143 125.071 35.2682C125.071 36.9221 124.713 38.3972 123.998 39.6487C123.283 40.9003 122.344 41.8837 121.137 42.5542C119.93 43.2247 118.634 43.5823 117.159 43.5823C115.281 43.5823 113.806 43.0012 112.689 41.8837V49.0357H107.057V27.2669H112.421V28.8761C113.449 27.6245 115.058 26.9987 117.159 26.9987C118.589 26.954 119.93 27.2669 121.137 27.9821ZM118.41 38.0395C119.036 37.3691 119.349 36.4304 119.349 35.2235C119.349 34.0166 119.036 33.1226 118.41 32.4074C117.785 31.7369 116.98 31.3793 115.997 31.3793C115.013 31.3793 114.209 31.7369 113.583 32.4074C112.957 33.0779 112.644 34.0166 112.644 35.2235C112.644 36.4304 112.957 37.3243 113.583 38.0395C114.209 38.71 115.013 39.0677 115.997 39.0677C116.935 39.023 117.74 38.71 118.41 38.0395Z" fill="#333333"/>
<path d="M261.136 31.0664V27.3563H254.029H249.067V31.1111V33.4355V37.1903V39.8276V43.4483V43.7165L261.136 43.6271V39.9617H254.029V37.1903L259.974 37.1456V33.4355H254.029V31.1111L261.136 31.0664Z" fill="#F05E40"/>
<path d="M217.599 27.3563H212.28L212.235 43.7165L224.349 43.6718V38.8889H217.599V27.3563Z" fill="#F05E40"/>
<path d="M226.628 27.3116V43.6717H232.439L232.394 27.3116H226.628Z" fill="#F05E40"/>
<path d="M239.68 27.3563H234.719V31.1111V33.4355V37.1903V43.6718H239.68V37.1903L245.626 37.1456V33.4355H239.68V31.1111L246.788 31.0664V27.3563H239.68Z" fill="#F05E40"/>
<path d="M76.124 58.9145H74.3807L74.0231 59.9426H73.1738L74.9171 55.3832H75.4535H75.6323L77.3756 59.9426H76.5263L76.124 58.9145ZM75.9005 58.244L75.23 56.3666L74.5595 58.244H75.9005Z" fill="#333333"/>
<path d="M82.7398 55.3832V59.9426H81.9352V57.9311H79.9237V59.9426H79.1191V55.3832H79.9237V57.2606H81.9352V55.3832H82.7398Z" fill="#333333"/>
<path d="M87.8797 59.3167V59.9872H85.4659H84.8848V55.4279H85.6894H87.835V56.0984H85.6894V57.3499H87.5668V57.9757H85.6894V59.3614H87.8797V59.3167Z" fill="#333333"/>
<path d="M92.3057 58.9145H90.5624L90.2048 59.9426H89.3555L91.0988 55.3832H91.6352H91.814L93.5573 59.9426H92.708L92.3057 58.9145ZM92.0822 58.244L91.4117 56.3666L90.7859 58.244H92.0822Z" fill="#333333"/>
<path d="M97.6697 55.6513C97.9825 55.8301 98.2061 56.0983 98.3849 56.4112C98.5637 56.7241 98.6531 57.1264 98.6531 57.5734V57.7969C98.6531 58.2439 98.5637 58.6015 98.3849 58.9591C98.2061 59.272 97.9825 59.5402 97.6697 59.719C97.3568 59.8978 96.9992 59.9872 96.5522 59.9872H95.5688H95.2559V55.4278H96.0605H96.5969C96.9992 55.3831 97.3568 55.4725 97.6697 55.6513ZM97.8484 57.5734C97.8484 57.0817 97.7591 56.7241 97.5356 56.4559C97.3121 56.1877 96.9992 56.0536 96.5969 56.0536H96.0605V59.3167H96.5522C96.9545 59.3167 97.2674 59.1826 97.4909 58.9144C97.7144 58.6462 97.8038 58.2886 97.8038 57.7969V57.5734H97.8484Z" fill="#333333"/>
<path d="M106.967 58.9591C106.788 59.3167 106.565 59.5402 106.296 59.719C106.028 59.8978 105.671 59.9872 105.313 59.9872C104.955 59.9872 104.598 59.8978 104.33 59.719C104.061 59.5402 103.793 59.272 103.659 58.9591C103.48 58.6015 103.436 58.2439 103.436 57.7522V57.5287C103.436 57.0817 103.525 56.6794 103.659 56.3218C103.838 55.9642 104.061 55.7407 104.33 55.5619C104.598 55.3831 104.955 55.2937 105.313 55.2937C105.671 55.2937 106.028 55.3831 106.296 55.5619C106.565 55.7407 106.788 56.0089 106.967 56.3218C107.146 56.6794 107.19 57.037 107.19 57.5287V57.7522C107.235 58.2439 107.146 58.6462 106.967 58.9591ZM106.118 56.4112C105.939 56.143 105.671 56.0089 105.313 56.0089C105.089 56.0089 104.911 56.0536 104.732 56.1877C104.553 56.3218 104.464 56.5006 104.374 56.7241C104.285 56.9476 104.24 57.2605 104.24 57.5734V57.7969C104.24 58.1098 104.285 58.4227 104.374 58.6462C104.464 58.8697 104.598 59.0485 104.732 59.1826C104.866 59.3167 105.089 59.3614 105.313 59.3614C105.671 59.3614 105.939 59.2273 106.118 58.9591C106.296 58.6909 106.386 58.2886 106.386 57.7969V57.5734C106.386 57.037 106.296 56.6794 106.118 56.4112Z" fill="#333333"/>
<path d="M110.052 56.0537V57.3946H111.884V58.0651H110.052V59.9872H109.247V55.4279H110.052H112.153V56.0984H110.052V56.0537Z" fill="#333333"/>
<path d="M120.198 56.0537H118.767V59.9873H117.963V56.0537H116.577V55.3832H118.812H120.243V56.0537H120.198Z" fill="#333333"/>
<path d="M125.651 55.3832V59.9426H124.846V57.9311H122.835V59.9426H122.03V55.3832H122.835V57.2606H124.846V55.3832H125.651Z" fill="#333333"/>
<path d="M130.792 59.3167V59.9872H128.378H127.797V55.4279H128.601H130.747V56.0984H128.601V57.3499H130.479V57.9757H128.601V59.3614H130.792V59.3167Z" fill="#333333"/>
<path d="M138.794 59.272C138.66 59.4955 138.436 59.6743 138.168 59.8084C137.9 59.9425 137.587 59.9872 137.229 59.9872C136.872 59.9872 136.514 59.8978 136.246 59.719C135.978 59.5402 135.754 59.272 135.62 58.9591C135.486 58.6462 135.396 58.2439 135.396 57.7969V57.4393C135.396 56.9923 135.486 56.6347 135.62 56.2771C135.754 55.9642 135.978 55.696 136.29 55.5172C136.559 55.3384 136.916 55.249 137.274 55.249C137.631 55.249 137.944 55.2937 138.213 55.4278C138.481 55.5619 138.66 55.7407 138.794 55.9642C138.928 56.1877 139.017 56.4559 139.062 56.7688H138.257C138.213 56.4559 138.123 56.2324 137.989 56.0983C137.855 55.9642 137.631 55.8748 137.319 55.8748C136.961 55.8748 136.693 56.0089 136.514 56.2771C136.335 56.5453 136.246 56.9029 136.246 57.3946V57.7522C136.246 58.2439 136.335 58.6015 136.514 58.8697C136.693 59.1379 136.961 59.272 137.274 59.272C137.497 59.272 137.676 59.2273 137.81 59.1826C137.944 59.0932 138.034 59.0038 138.123 58.8697C138.213 58.7356 138.257 58.5568 138.257 58.378H139.062C139.017 58.7803 138.928 59.0485 138.794 59.272Z" fill="#333333"/>
<path d="M144.336 58.4228C144.336 58.7804 144.247 59.0486 144.113 59.2721C143.979 59.4956 143.755 59.6744 143.487 59.8085C143.219 59.9426 142.951 59.9873 142.593 59.9873C142.28 59.9873 141.967 59.9426 141.699 59.8085C141.431 59.6744 141.252 59.4956 141.073 59.2721C140.939 59.0486 140.85 58.7357 140.85 58.4228V55.3832H141.654V58.4228C141.654 58.7357 141.744 58.9592 141.878 59.138C142.057 59.2721 142.235 59.3615 142.548 59.3615C142.816 59.3615 143.04 59.2721 143.219 59.138C143.353 59.0039 143.442 58.7357 143.442 58.4228V55.3832H144.247V58.4228H144.336Z" fill="#333333"/>
<path d="M149.834 59.8979L148.94 59.9426L148.046 58.1993H147.197V59.9426H146.393V55.3832H148.002C148.538 55.3832 148.94 55.5173 149.209 55.7408C149.477 55.9643 149.656 56.3219 149.656 56.7689C149.656 57.0818 149.566 57.3053 149.432 57.5288C149.298 57.7523 149.075 57.8864 148.806 58.0205L149.834 59.8979ZM147.197 57.5288H148.002C148.27 57.5288 148.493 57.4394 148.628 57.3053C148.762 57.1712 148.851 56.9924 148.851 56.7689C148.851 56.5454 148.762 56.3219 148.628 56.1878C148.493 56.0537 148.27 56.009 148.002 56.009H147.197V57.5288Z" fill="#333333"/>
<path d="M155.287 55.3832L153.633 59.9426H153.008H152.829L151.175 55.3832H152.069L153.186 58.9592L154.348 55.3832H155.287Z" fill="#333333"/>
<path d="M160.025 59.3167V59.9872H157.611H157.03V55.4279H157.835H159.98V56.0984H157.835V57.3499H159.712V57.9757H157.835V59.3614H160.025V59.3167Z" fill="#333333"/>
</svg>
