<svg width="70" height="70" viewBox="0 0 70 70" fill="none" xmlns="http://www.w3.org/2000/svg">
<path d="M34.9554 3.39719V0C25.3002 0 16.539 3.93359 10.2363 10.2363L12.6501 12.6501C18.3717 6.97318 26.2389 3.39719 34.9554 3.39719Z" fill="#333333"/>
<path d="M3.39719 35H0C0 44.6552 3.93359 53.4163 10.2363 59.719L12.6501 57.3052C6.92848 51.6284 3.39719 43.7165 3.39719 35Z" fill="#333333"/>
<path d="M12.6501 57.35L10.2363 59.7638C16.5837 66.1111 25.3002 70 34.9554 70V66.6029C26.2389 66.6029 18.3717 63.0269 12.6501 57.35Z" fill="#333333"/>
<path d="M17.7908 17.8353L12.6503 12.6501C6.92875 18.3717 3.39746 26.2835 3.39746 35H10.6835C10.6835 28.295 13.4102 22.2159 17.7908 17.8353Z" fill="#F05E40"/>
<path d="M52.1645 17.8353L57.305 12.6948C51.5834 6.97319 43.7163 3.44189 34.9551 3.44189V10.728C41.7048 10.728 47.7392 13.41 52.1645 17.8353Z" fill="#F05E40"/>
<path d="M17.7909 52.1647L12.6504 57.3499C18.372 63.0715 26.2392 66.6028 35.0003 66.6028V59.3167C28.2506 59.272 22.2162 56.59 17.7909 52.1647Z" fill="#F05E40"/>
<path d="M34.9551 59.272V66.5581C43.6716 66.5581 51.5834 63.0268 57.305 57.3052L52.1645 52.1647C47.7392 56.59 41.7048 59.272 34.9551 59.272Z" fill="#F05E40"/>
<path d="M15.5559 35H10.6836C10.6836 41.705 13.4103 47.7842 17.7909 52.1647L21.2328 48.7229C17.7015 45.2363 15.5559 40.364 15.5559 35Z" fill="#333333"/>
<path d="M21.2328 21.2771L17.7909 17.8353C13.4103 22.2159 10.6836 28.295 10.6836 35H15.5559C15.5559 29.636 17.7015 24.7637 21.2328 21.2771Z" fill="#333333"/>
<path d="M21.2319 48.7228L17.79 52.1647C22.1706 56.5453 28.2498 59.272 34.9548 59.272V54.3997C29.5908 54.4444 24.7632 52.2541 21.2319 48.7228Z" fill="#333333"/>
<path d="M34.9548 15.5556V10.6833C28.2498 10.6833 22.1706 13.41 17.79 17.7906L21.2319 21.2325C24.7632 17.7459 29.5908 15.5556 34.9548 15.5556Z" fill="#333333"/>
<path d="M34.9551 54.4445V59.3168C41.6601 59.3168 47.7392 56.5901 52.1198 52.2095L48.6779 48.7676C45.1913 52.2542 40.3638 54.4445 34.9551 54.4445Z" fill="#333333"/>
<path d="M34.9551 10.728V15.6003C40.3191 15.6003 45.1913 17.7905 48.6779 21.2771L52.1198 17.8353C47.7392 13.41 41.7048 10.728 34.9551 10.728Z" fill="#333333"/>
</svg>
